<svg height="512" viewBox="0 0 24 24" width="512" data-name="Layer 1" xmlns="http://www.w3.org/2000/svg"><path d="M12 0a12 12 0 1 0 12 12A12.013 12.013 0 0 0 12 0zm4 13h-3v3a1 1 0 0 1-2 0v-3H8a1 1 0 0 1 0-2h3V8a1 1 0 0 1 2 0v3h3a1 1 0 0 1 0 2z"/><path style="fill:#2f66da;stroke-width:.618357;fill-opacity:1" d="M244.251 511.331c-105.127-4.662-197.316-74.407-230.66-174.503-5.803-17.422-9.53-34.245-11.814-53.311-1.558-13.02-1.558-42.015 0-55.034 7.06-58.958 32.076-111.376 72.632-152.185 43.287-43.558 98.419-69.43 159.948-75.06 9.561-.876 33.746-.875 43.286.001 45.183 4.149 88.327 19.838 124.599 45.31 51.049 35.851 87.193 88.612 101.97 148.852 5.312 21.657 7.182 37.782 7.135 61.527-.037 18.56-.87 28.365-3.755 44.212-14.26 78.312-63.398 144.943-134.104 181.84-30.942 16.146-69.844 26.808-102.555 28.108-4.472.177-9.94.41-12.15.516-2.211.107-8.75-.016-14.532-.273zm21.174-150.565c4.234-2.072 7.62-5.388 9.878-9.672l1.721-3.268.174-35.067.174-35.068 34.763-.179 34.764-.179 3.492-1.637c4.255-1.995 7.948-5.576 10.245-9.936 1.566-2.973 1.721-3.852 1.721-9.76 0-5.908-.155-6.787-1.721-9.76-2.297-4.36-5.99-7.941-10.245-9.936l-3.492-1.637-34.764-.18-34.763-.178-.174-35.068-.174-35.067-1.721-3.268c-2.3-4.365-5.995-7.945-10.245-9.926-2.959-1.378-4.344-1.627-9.058-1.627-4.714 0-6.1.249-9.058 1.627-4.25 1.981-7.944 5.56-10.245 9.926l-1.721 3.268-.174 35.067-.174 35.068-34.763.179-34.764.179-3.644 1.79c-4.441 2.18-7.805 5.44-10.093 9.783-1.566 2.973-1.721 3.852-1.721 9.76 0 5.908.155 6.787 1.721 9.76 2.288 4.342 5.652 7.603 10.093 9.784l3.644 1.79 34.764.178 34.763.179.174 35.068.174 35.067 1.48 2.783c3.244 6.095 7.7 9.883 13.595 11.553 4.408 1.25 11.234.63 15.374-1.396z" transform="scale(.04688)"/></svg>