<?xml version="1.0" encoding="UTF-8"?>
<svg enable-background="new 0 0 512 512" version="1.1" viewBox="0 0 512 512" fill="#5D5D5D" xml:space="preserve" xmlns="http://www.w3.org/2000/svg">

	<path d="m448 85.333h-66.133c-10.207-49.63-53.865-85.269-104.53-85.333h-42.667c-50.669 0.064-94.327 35.703-104.53 85.333h-66.133c-11.782 0-21.333 9.551-21.333 21.333s9.551 21.334 21.333 21.334h21.333v277.33c0.071 58.881 47.786 106.6 106.67 106.67h128c58.881-0.07 106.6-47.786 106.67-106.67v-277.33h21.333c11.782 0 21.333-9.551 21.333-21.333s-9.551-21.334-21.333-21.334zm-213.33 277.33c0 11.782-9.551 21.333-21.333 21.333-11.783 0-21.334-9.551-21.334-21.333v-128c0-11.782 9.551-21.333 21.333-21.333s21.333 9.551 21.333 21.333v128zm85.333 0c0 11.782-9.551 21.333-21.333 21.333s-21.333-9.551-21.333-21.333v-128c0-11.782 9.551-21.333 21.333-21.333s21.333 9.551 21.333 21.333v128zm-145.68-277.33c9.074-25.551 33.238-42.634 60.352-42.667h42.667c27.114 0.033 51.278 17.116 60.352 42.667h-163.37z"/>

</svg>
